<svg xmlns="http://www.w3.org/2000/svg" viewBox="0 0 70 70"><rect width="70" height="70" style="fill:#214e4a"/><path d="M35,52.43V62.85" style="fill:none;stroke:#fff;stroke-width:1.5793553465412646px"/><path d="M35,17V35.53" style="fill:none;stroke:#fff;stroke-width:1.5793553465412646px"/><path d="M10.94,20.58V49.2" style="fill:none;stroke:#fff;stroke-width:1.5793553465412646px"/><path d="M19.79,25.05V44.46" style="fill:none;stroke:#fff;stroke-width:1.5793553465412646px"/><path d="M50,25.57V44.75" style="fill:none;stroke:#fff;stroke-width:1.5793553465412646px"/><path d="M59.05,20.89V49.2" style="fill:none;stroke:#fff;stroke-width:1.5793553465412646px"/><path d="M10.78,21.17l8.77,4.39" style="fill:none;stroke:#fff;stroke-width:1.5793553788340402px"/><path d="M34.53,16.83l16,9.23" style="fill:none;stroke:#fff;stroke-width:1.579355298106302px"/><path d="M34.36,7,59.44,21.51" style="fill:none;stroke:#fff;stroke-width:1.579355298106302px"/><path d="M10.56,48.63,35.4,63" style="fill:none;stroke:#fff;stroke-width:1.579355298106302px"/><path d="M19.55,43.89l15.87,9.16" style="fill:none;stroke:#fff;stroke-width:1.579355298106302px"/><path d="M34.49,35.17l15.87,9.16" style="fill:none;stroke:#fff;stroke-width:1.579355298106302px"/><path d="M35.25,16.84,19.92,25.69" style="fill:none;stroke:#fff;stroke-width:1.579355298106302px"/><path d="M35.18,35.22l-15.41,8.9" style="fill:none;stroke:#fff;stroke-width:1.579355298106302px"/><path d="M50.41,44.08l-16.2,9.35" style="fill:none;stroke:#fff;stroke-width:1.579355298106302px"/><path d="M59.41,48.57,34.51,62.94" style="fill:none;stroke:#fff;stroke-width:1.579355298106302px"/><path d="M35,7.06,10.59,21.18" style="fill:none;stroke:#fff;stroke-width:1.579355298106302px"/><path d="M58.68,21.22,49.5,26.53" style="fill:none;stroke:#fff;stroke-width:1.579355298106302px"/></svg>