<svg xmlns="http://www.w3.org/2000/svg" viewBox="0 0 120 120"><path d="M59.91,93.11V112.9" style="fill:none;stroke:#214e4a;stroke-width:3.000000089406967px"/><path d="M59.91,25.76V61" style="fill:none;stroke:#214e4a;stroke-width:3.000000089406967px"/><path d="M14.3,32.62V87" style="fill:none;stroke:#214e4a;stroke-width:3.000000089406967px"/><path d="M31.11,41.09V78" style="fill:none;stroke:#214e4a;stroke-width:3.000000089406967px"/><path d="M88.47,42.08V78.52" style="fill:none;stroke:#214e4a;stroke-width:3.000000089406967px"/><path d="M105.69,33.2V87" style="fill:none;stroke:#214e4a;stroke-width:3.000000089406967px"/><path d="M14,33.73l16.67,8.35" style="fill:none;stroke:#214e4a;stroke-width:3.0000001507473932px"/><path d="M59.1,25.49,89.44,43" style="fill:none;stroke:#214e4a;stroke-width:2.9999999974043075px"/><path d="M58.78,6.87l47.65,27.51" style="fill:none;stroke:#214e4a;stroke-width:2.9999999974043075px"/><path d="M13.57,85.88l47.19,27.25" style="fill:none;stroke:#214e4a;stroke-width:2.9999999974043075px"/><path d="M30.66,76.89,60.8,94.29" style="fill:none;stroke:#214e4a;stroke-width:2.9999999974043075px"/><path d="M59,60.32,89.18,77.73" style="fill:none;stroke:#214e4a;stroke-width:2.9999999974043075px"/><path d="M60.47,25.51,31.35,42.32" style="fill:none;stroke:#214e4a;stroke-width:2.9999999974043075px"/><path d="M60.35,60.42,31.07,77.32" style="fill:none;stroke:#214e4a;stroke-width:2.9999999974043075px"/><path d="M89.27,77.24,58.5,95" style="fill:none;stroke:#214e4a;stroke-width:2.9999999974043075px"/><path d="M106.37,85.77l-47.3,27.31" style="fill:none;stroke:#214e4a;stroke-width:2.9999999974043075px"/><path d="M60.08,6.93,13.64,33.74" style="fill:none;stroke:#214e4a;stroke-width:2.9999999974043075px"/><path d="M105,33.83,87.53,43.9" style="fill:none;stroke:#214e4a;stroke-width:2.9999999974043075px"/></svg>