<svg xmlns="http://www.w3.org/2000/svg" viewBox="0 0 403.5 115.96"><path d="M137.86,14.25,161.8,69.54l24-55.29,13.35,69.6h-7.5l-8.48-44.54H183L161.8,86.56,140.67,39.31h-.19L132,83.85h-7.52Z" style="fill:#f37e1c"/><path d="M203.88,63.42a21.72,21.72,0,0,1,2.88-10.92,20.86,20.86,0,0,1,7.85-7.94,21.68,21.68,0,0,1,21.63,0,21.92,21.92,0,0,1,7.89,29.73,20.65,20.65,0,0,1-7.85,7.86,22.06,22.06,0,0,1-21.71-.05,20.45,20.45,0,0,1-7.85-7.89A21.59,21.59,0,0,1,203.88,63.42Zm21.48-15.3A13.62,13.62,0,0,0,215,52.54a15.17,15.17,0,0,0-4.15,10.79,15.43,15.43,0,0,0,2.27,8.34,13.93,13.93,0,0,0,5.54,5.25,15.19,15.19,0,0,0,6.77,1.6,14.65,14.65,0,0,0,7.34-1.87,13.69,13.69,0,0,0,5.27-5.42,15.89,15.89,0,0,0,2-7.9,16.26,16.26,0,0,0-1.79-7.5,14,14,0,0,0-5.21-5.6A14.31,14.31,0,0,0,225.36,48.12Z" style="fill:#f37e1c"/><path d="M275.47,50a18.55,18.55,0,0,0-2-1.31,4.31,4.31,0,0,0-2.23-.55,6.59,6.59,0,0,0-6,3.5q-2,3.51-2,11.28V83.85h-7v-41h7v4.46h.19a15.78,15.78,0,0,1,4.48-4.5,9.34,9.34,0,0,1,4.6-1.1,9.87,9.87,0,0,1,3.17.54,16.51,16.51,0,0,1,3.1,1.37Z" style="fill:#f37e1c"/><path d="M321.58,64.81H289.35a13.93,13.93,0,0,0,4,9.92,12.9,12.9,0,0,0,9.43,3.79,12.31,12.31,0,0,0,6.94-2,18.6,18.6,0,0,0,5.54-6.46l5.94,3.4A22.16,22.16,0,0,1,313.41,82a20.68,20.68,0,0,1-11.13,3,19.72,19.72,0,0,1-10.66-2.88,18.55,18.55,0,0,1-7-7.7,23.48,23.48,0,0,1-2.4-10.55,26.16,26.16,0,0,1,2.4-11.35,18.49,18.49,0,0,1,6.93-7.94,19.24,19.24,0,0,1,10.57-2.89,18.93,18.93,0,0,1,10.35,2.85,18.26,18.26,0,0,1,6.85,7.81,25.83,25.83,0,0,1,2.36,11.17A12.1,12.1,0,0,1,321.58,64.81Zm-7.34-5.94A13.08,13.08,0,0,0,310,51.1a11.48,11.48,0,0,0-7.77-3,12.36,12.36,0,0,0-8,3.11,12.1,12.1,0,0,0-4.46,7.64Z" style="fill:#f37e1c"/><path d="M350,50a18.55,18.55,0,0,0-2-1.31,4.36,4.36,0,0,0-2.23-.55,6.57,6.57,0,0,0-6,3.5c-1.37,2.34-2,6.1-2,11.28V83.85h-7v-41h7v4.46H338a15.91,15.91,0,0,1,4.48-4.5,9.38,9.38,0,0,1,4.61-1.1,9.85,9.85,0,0,1,3.16.54,16.6,16.6,0,0,1,3.11,1.37Z" style="fill:#f37e1c"/><path d="M356.76,63.42a21.72,21.72,0,0,1,2.88-10.92,20.93,20.93,0,0,1,7.85-7.94,21.18,21.18,0,0,1,10.84-2.89,21,21,0,0,1,10.79,2.89A21.92,21.92,0,0,1,397,74.29a20.65,20.65,0,0,1-7.85,7.86,22.06,22.06,0,0,1-21.71-.05,20.45,20.45,0,0,1-7.85-7.89A21.59,21.59,0,0,1,356.76,63.42Zm21.48-15.3a13.62,13.62,0,0,0-10.35,4.42,15.17,15.17,0,0,0-4.15,10.79A15.43,15.43,0,0,0,366,71.67a13.89,13.89,0,0,0,5.55,5.25,15.13,15.13,0,0,0,6.77,1.6,14.64,14.64,0,0,0,7.33-1.87,13.69,13.69,0,0,0,5.27-5.42,15.89,15.89,0,0,0,2-7.9,16.26,16.26,0,0,0-1.79-7.5,14,14,0,0,0-5.21-5.6A14.31,14.31,0,0,0,378.24,48.12Z" style="fill:#f37e1c"/><path d="M175.8,103.38a2.53,2.53,0,0,1,1.28.31,2,2,0,0,1,.85.85,2.49,2.49,0,0,1,.31,1.25,2.39,2.39,0,0,1-.31,1.25,2.17,2.17,0,0,1-.9.82,2.72,2.72,0,0,1-1.31.29h-1.56a.05.05,0,0,0-.06.06V111a.17.17,0,0,1-.19.19h-1.19a.17.17,0,0,1-.19-.19v-7.41a.17.17,0,0,1,.19-.19Zm-.25,3.52a1.16,1.16,0,0,0,.84-.29,1,1,0,0,0,.31-.77,1,1,0,0,0-.31-.8,1.17,1.17,0,0,0-.84-.31h-1.39s-.06,0-.06.09v2a.05.05,0,0,0,.06.06Z" style="fill:#f37e1c"/><path d="M182.93,111.17a.17.17,0,0,1-.19-.19v-7.39a.17.17,0,0,1,.19-.19h1.18a.17.17,0,0,1,.19.19v6.16q0,.09.06.09h3.57a.16.16,0,0,1,.18.18v1c0,.13-.06.19-.18.19Z" style="fill:#f37e1c"/><path d="M197.58,111.17a.2.2,0,0,1-.2-.15l-.32-1a.05.05,0,0,0-.06-.06h-2.71a.08.08,0,0,0-.08.06l-.31,1a.2.2,0,0,1-.21.15H192.4a.2.2,0,0,1-.15-.06.14.14,0,0,1,0-.15l2.38-7.42a.18.18,0,0,1,.2-.14h1.63a.23.23,0,0,1,.21.14L199,111V111a.14.14,0,0,1,0,.11.16.16,0,0,1-.12,0Zm-3-2.54c0,.06,0,.08.07.08h2s.06,0,.06-.08l-1-3.38s0,0-.06,0a.07.07,0,0,0,0,0Z" style="fill:#f37e1c"/><path d="M203.76,111.17a.17.17,0,0,1-.19-.19v-7.39a.17.17,0,0,1,.19-.19h1.12a.27.27,0,0,1,.23.12l2.77,4.61s0,.06,0,.06a.08.08,0,0,0,.05-.08v-4.52c0-.13.06-.19.18-.19h1.17a.17.17,0,0,1,.19.19V111a.17.17,0,0,1-.19.19h-1.13A.24.24,0,0,1,208,111l-2.8-4.66s0,0,0,0,0,0,0,0V111a.17.17,0,0,1-.19.19Z" style="fill:#f37e1c"/><path d="M215.16,111.21a1,1,0,0,1-.71-.27.94.94,0,0,1-.29-.69.86.86,0,0,1,.31-.66,1,1,0,0,1,.69-.3,1,1,0,0,1,.73.3.83.83,0,0,1,.31.66.89.89,0,0,1-.31.69A1,1,0,0,1,215.16,111.21Z" style="fill:#f37e1c"/><path d="M231.2,107.11s0,0,0,0a.08.08,0,0,0,0,0,1.85,1.85,0,0,1,1.05,1.81,2,2,0,0,1-.73,1.63,3.16,3.16,0,0,1-1.92.54h-2.81a.17.17,0,0,1-.19-.19v-7.39a.17.17,0,0,1,.19-.19h2.73c1.75,0,2.62.71,2.62,2.12A1.62,1.62,0,0,1,231.2,107.11Zm-3-2.38s-.06,0-.06.09v1.7s0,.07.06.07h1.3a1.17,1.17,0,0,0,.79-.25.86.86,0,0,0,.29-.67.88.88,0,0,0-.29-.69,1.17,1.17,0,0,0-.79-.25Zm1.38,5.09a1.22,1.22,0,0,0,.79-.25,1,1,0,0,0,.29-.73.88.88,0,0,0-.29-.71,1.17,1.17,0,0,0-.81-.27h-1.36a.05.05,0,0,0-.06.06v1.83s0,.07.06.07Z" style="fill:#f37e1c"/><path d="M239.81,111.25a3.37,3.37,0,0,1-1.52-.33,2.33,2.33,0,0,1-1-.94,2.64,2.64,0,0,1-.35-1.39v-5c0-.13.06-.19.18-.19h1.19a.17.17,0,0,1,.19.19v5a1.21,1.21,0,0,0,1.31,1.31,1.26,1.26,0,0,0,.94-.35,1.3,1.3,0,0,0,.37-1v-5a.17.17,0,0,1,.19-.19h1.19a.17.17,0,0,1,.19.19v5a2.56,2.56,0,0,1-.38,1.39,2.39,2.39,0,0,1-1,.94A3.25,3.25,0,0,1,239.81,111.25Z" style="fill:#f37e1c"/><path d="M247.68,111.17c-.12,0-.18-.06-.18-.19v-7.39c0-.13.06-.19.18-.19h1.19a.17.17,0,0,1,.19.19V111a.17.17,0,0,1-.19.19Z" style="fill:#f37e1c"/><path d="M254.12,111.17a.17.17,0,0,1-.19-.19v-7.39a.17.17,0,0,1,.19-.19h1.18a.17.17,0,0,1,.19.19v6.16q0,.09.06.09h3.57a.16.16,0,0,1,.18.18v1c0,.13-.06.19-.18.19Z" style="fill:#f37e1c"/><path d="M264,111.17a.17.17,0,0,1-.19-.19v-7.39a.17.17,0,0,1,.19-.19h2.71a3.52,3.52,0,0,1,1.46.29,2.23,2.23,0,0,1,1,.83,2.19,2.19,0,0,1,.35,1.23v3.07a2.17,2.17,0,0,1-1.31,2.06,3.37,3.37,0,0,1-1.46.29Zm1.38-1.42q0,.09.06.09h1.33a1,1,0,0,0,.82-.36,1.32,1.32,0,0,0,.33-.91V106a1.32,1.32,0,0,0-.31-.91,1.09,1.09,0,0,0-.86-.36h-1.31s-.06,0-.06.09Z" style="fill:#f37e1c"/><path d="M274.94,111.21a1,1,0,0,1-.71-.27.94.94,0,0,1-.29-.69.86.86,0,0,1,.31-.66,1,1,0,0,1,.69-.3,1,1,0,0,1,.73.3.83.83,0,0,1,.31.66.89.89,0,0,1-.31.69A1,1,0,0,1,274.94,111.21Z" style="fill:#f37e1c"/><path d="M289,111.25a4.13,4.13,0,0,1-1.55-.27,2.31,2.31,0,0,1-1-.81,2.16,2.16,0,0,1-.35-1.23v-.19c0-.12.06-.18.19-.18h1.16c.13,0,.19.05.19.14v.15a.92.92,0,0,0,.4.75,1.71,1.71,0,0,0,1.08.31,1.2,1.2,0,0,0,.85-.25.8.8,0,0,0,.3-.63.57.57,0,0,0-.19-.43,1.51,1.51,0,0,0-.48-.34c-.2-.09-.52-.21-1-.37a8.94,8.94,0,0,1-1.27-.52,2.59,2.59,0,0,1-.85-.73,1.8,1.8,0,0,1-.36-1.15,2,2,0,0,1,.34-1.16,2,2,0,0,1,.95-.75,3.56,3.56,0,0,1,1.42-.27,3.65,3.65,0,0,1,1.5.29,2.47,2.47,0,0,1,1,.83,2.17,2.17,0,0,1,.38,1.25v.13a.17.17,0,0,1-.19.18h-1.17q-.18,0-.18-.12v-.11a1,1,0,0,0-.4-.79,1.53,1.53,0,0,0-1-.33,1.28,1.28,0,0,0-.81.23.69.69,0,0,0-.3.6.74.74,0,0,0,.17.48,1.28,1.28,0,0,0,.5.33c.23.1.59.23,1.06.4s.92.37,1.23.52a2.35,2.35,0,0,1,.81.65,1.73,1.73,0,0,1,.36,1.14,2.06,2.06,0,0,1-.36,1.21,2.09,2.09,0,0,1-1,.77A3.93,3.93,0,0,1,289,111.25Z" style="fill:#f37e1c"/><path d="M299.28,111.25a3.37,3.37,0,0,1-1.52-.33,2.33,2.33,0,0,1-1-.94,2.64,2.64,0,0,1-.35-1.39v-5c0-.13.06-.19.18-.19h1.19a.17.17,0,0,1,.19.19v5a1.21,1.21,0,0,0,1.31,1.31,1.26,1.26,0,0,0,.94-.35,1.3,1.3,0,0,0,.37-1v-5a.17.17,0,0,1,.19-.19H302a.17.17,0,0,1,.19.19v5a2.56,2.56,0,0,1-.38,1.39,2.39,2.39,0,0,1-1,.94A3.25,3.25,0,0,1,299.28,111.25Z" style="fill:#f37e1c"/><path d="M309.7,111.25a3.47,3.47,0,0,1-1.55-.33,2.39,2.39,0,0,1-1-.94,2.73,2.73,0,0,1-.35-1.41V106a2.68,2.68,0,0,1,.35-1.41,2.45,2.45,0,0,1,1-.94,3.79,3.79,0,0,1,3.05,0,2.41,2.41,0,0,1,1.37,2.25c0,.07-.06.11-.19.12l-1.18.07h-.05c-.1,0-.14,0-.14,0v-.08a1.26,1.26,0,0,0-.38-.94,1.29,1.29,0,0,0-.93-.35,1.38,1.38,0,0,0-1,.35,1.28,1.28,0,0,0-.36.94v2.69a1.27,1.27,0,0,0,.36.94,1.34,1.34,0,0,0,1,.35,1.25,1.25,0,0,0,1.31-1.29.1.1,0,0,1,0-.09.25.25,0,0,1,.15,0l1.18.07c.13,0,.19,0,.19,0v.06a2.4,2.4,0,0,1-.37,1.35,2.54,2.54,0,0,1-1,.92A3.44,3.44,0,0,1,309.7,111.25Z" style="fill:#f37e1c"/><path d="M320,111.25a3.42,3.42,0,0,1-1.54-.33,2.33,2.33,0,0,1-1-.94,2.74,2.74,0,0,1-.36-1.41V106a2.69,2.69,0,0,1,.36-1.41,2.39,2.39,0,0,1,1-.94,3.42,3.42,0,0,1,1.54-.33,3.38,3.38,0,0,1,1.5.31,2.41,2.41,0,0,1,1,.89,2.48,2.48,0,0,1,.38,1.36c0,.07-.07.11-.19.12l-1.19.07h0c-.1,0-.15,0-.15,0v-.08a1.25,1.25,0,0,0-.37-.94,1.3,1.3,0,0,0-.94-.35,1.38,1.38,0,0,0-1,.35,1.27,1.27,0,0,0-.35.94v2.69a1.26,1.26,0,0,0,.35.94,1.34,1.34,0,0,0,1,.35,1.26,1.26,0,0,0,.94-.35,1.24,1.24,0,0,0,.37-.94.1.1,0,0,1,0-.09.27.27,0,0,1,.15,0l1.19.07a.41.41,0,0,1,.19,0v.06a2.4,2.4,0,0,1-.38,1.35,2.47,2.47,0,0,1-1,.92A3.38,3.38,0,0,1,320,111.25Z" style="fill:#f37e1c"/><path d="M332.89,104.54c0,.13-.07.19-.21.19h-3.56s-.06,0-.06.09v1.68s0,.07.06.07h2.31c.13,0,.19.06.19.18v1a.17.17,0,0,1-.19.19h-2.31a.05.05,0,0,0-.06.06v1.77q0,.09.06.09h3.56q.21,0,.21.18v1c0,.13-.07.19-.21.19h-5c-.12,0-.18-.06-.18-.19v-7.39c0-.13.06-.19.18-.19h5c.14,0,.21.06.21.19Z" style="fill:#f37e1c"/><path d="M342.89,104.54c0,.13-.07.19-.21.19h-3.56s-.06,0-.06.09v1.68s0,.07.06.07h2.31c.13,0,.19.06.19.18v1a.17.17,0,0,1-.19.19h-2.31a.05.05,0,0,0-.06.06v1.77q0,.09.06.09h3.56q.21,0,.21.18v1c0,.13-.07.19-.21.19h-5c-.12,0-.18-.06-.18-.19v-7.39c0-.13.06-.19.18-.19h5c.14,0,.21.06.21.19Z" style="fill:#f37e1c"/><path d="M347.68,111.17a.17.17,0,0,1-.19-.19v-7.39a.17.17,0,0,1,.19-.19h2.71a3.52,3.52,0,0,1,1.46.29,2.29,2.29,0,0,1,1,.83,2.19,2.19,0,0,1,.35,1.23v3.07a2.28,2.28,0,0,1-.35,1.25,2.32,2.32,0,0,1-1,.81,3.37,3.37,0,0,1-1.46.29Zm1.38-1.42q0,.09.06.09h1.33a1,1,0,0,0,.81-.36,1.28,1.28,0,0,0,.34-.91V106a1.32,1.32,0,0,0-.31-.91,1.09,1.09,0,0,0-.86-.36h-1.31s-.06,0-.06.09Z" style="fill:#f37e1c"/><path d="M50,91v19.78" style="fill:none;stroke:#f37e1c;stroke-width:2.9999999974043075px"/><path d="M50,23.59V58.84" style="fill:none;stroke:#f37e1c;stroke-width:2.9999999974043075px"/><path d="M4.34,30.45V84.8" style="fill:none;stroke:#f37e1c;stroke-width:2.9999999974043075px"/><path d="M21.16,38.93V75.81" style="fill:none;stroke:#f37e1c;stroke-width:2.9999999974043075px"/><path d="M78.51,39.92V76.36" style="fill:none;stroke:#f37e1c;stroke-width:2.9999999974043075px"/><path d="M95.73,31V84.8" style="fill:none;stroke:#f37e1c;stroke-width:2.9999999974043075px"/><path d="M4,31.57,20.7,39.91" style="fill:none;stroke:#f37e1c;stroke-width:2.9999999974043075px"/><path d="M49.15,23.33,79.48,40.85" style="fill:none;stroke:#f37e1c;stroke-width:2.9999999974043075px"/><path d="M48.83,4.71,96.47,32.22" style="fill:none;stroke:#f37e1c;stroke-width:2.9999999974043075px"/><path d="M3.61,83.72,50.8,111" style="fill:none;stroke:#f37e1c;stroke-width:2.9999999974043075px"/><path d="M20.7,74.72,50.84,92.13" style="fill:none;stroke:#f37e1c;stroke-width:2.9999999974043075px"/><path d="M49.08,58.16l30.14,17.4" style="fill:none;stroke:#f37e1c;stroke-width:2.9999999974043075px"/><path d="M50.51,23.34,21.39,40.16" style="fill:none;stroke:#f37e1c;stroke-width:2.9999999974043075px"/><path d="M50.39,58.26,21.11,75.16" style="fill:none;stroke:#f37e1c;stroke-width:2.9999999974043075px"/><path d="M79.31,75.08,48.54,92.84" style="fill:none;stroke:#f37e1c;stroke-width:2.9999999974043075px"/><path d="M96.41,83.61l-47.3,27.31" style="fill:none;stroke:#f37e1c;stroke-width:2.9999999974043075px"/><path d="M50.12,4.77,3.68,31.58" style="fill:none;stroke:#f37e1c;stroke-width:2.9999999974043075px"/><path d="M95,31.67,77.58,41.74" style="fill:none;stroke:#f37e1c;stroke-width:2.9999999974043075px"/></svg>