<svg xmlns="http://www.w3.org/2000/svg" viewBox="0 0 285.4 81.25"><path d="M18.36,4.47,42.3,59.76l24-55.29,13.35,69.6h-7.5L63.69,29.53h-.16L42.3,76.78,21.17,29.53H21L12.53,74.07H5Z" style="fill:#fff"/><path d="M84.38,53.64a21.75,21.75,0,0,1,2.88-10.92,21,21,0,0,1,7.85-7.94A21.28,21.28,0,0,1,106,31.89a21,21,0,0,1,10.79,2.89,21.92,21.92,0,0,1,7.89,29.73,20.65,20.65,0,0,1-7.85,7.86,22.06,22.06,0,0,1-21.71-.05,20.45,20.45,0,0,1-7.85-7.89A21.57,21.57,0,0,1,84.38,53.64Zm21.48-15.29a13.61,13.61,0,0,0-10.35,4.41,15.17,15.17,0,0,0-4.15,10.79,15.43,15.43,0,0,0,2.27,8.34,13.89,13.89,0,0,0,5.55,5.25,15.13,15.13,0,0,0,6.77,1.6,14.64,14.64,0,0,0,7.33-1.87,13.69,13.69,0,0,0,5.27-5.42,15.89,15.89,0,0,0,2-7.9,16.26,16.26,0,0,0-1.79-7.5,14,14,0,0,0-5.21-5.6A14.3,14.3,0,0,0,105.86,38.35Z" style="fill:#fff"/><path d="M156,40.2A18.5,18.5,0,0,0,154,38.89a4.36,4.36,0,0,0-2.23-.54,6.55,6.55,0,0,0-6,3.5q-2.06,3.49-2,11.27V74.07h-7V33h7v4.46h.19a16.05,16.05,0,0,1,4.48-4.5,9.38,9.38,0,0,1,4.61-1.1,9.85,9.85,0,0,1,3.16.54,16.6,16.6,0,0,1,3.11,1.37Z" style="fill:#fff"/><path d="M202.08,55H169.85a13.93,13.93,0,0,0,4,9.92,12.93,12.93,0,0,0,9.44,3.79,12.27,12.27,0,0,0,6.93-2,18.72,18.72,0,0,0,5.55-6.46l5.93,3.4a22,22,0,0,1-7.81,8.52,20.65,20.65,0,0,1-11.12,3,19.73,19.73,0,0,1-10.67-2.88,18.62,18.62,0,0,1-7-7.7,23.48,23.48,0,0,1-2.4-10.55,26.19,26.19,0,0,1,2.4-11.35A18.5,18.5,0,0,1,172,34.78a19.26,19.26,0,0,1,10.56-2.89A18.93,18.93,0,0,1,193,34.74a18.35,18.35,0,0,1,6.86,7.81,26,26,0,0,1,2.35,11.17A12.1,12.1,0,0,1,202.08,55Zm-7.34-5.93a13.08,13.08,0,0,0-4.29-7.78,11.45,11.45,0,0,0-7.77-3,12.35,12.35,0,0,0-8,3.1,12.1,12.1,0,0,0-4.46,7.65Z" style="fill:#fff"/><path d="M230.54,40.2a18.55,18.55,0,0,0-2-1.31,4.33,4.33,0,0,0-2.23-.54,6.57,6.57,0,0,0-6,3.5q-2,3.49-2,11.27V74.07h-7V33h7v4.46h.19A15.92,15.92,0,0,1,223,33a9.32,9.32,0,0,1,4.6-1.1,10,10,0,0,1,3.17.54,16.8,16.8,0,0,1,3.1,1.37Z" style="fill:#fff"/><path d="M237.27,53.64a21.74,21.74,0,0,1,2.87-10.92A21,21,0,0,1,248,34.78a21.66,21.66,0,0,1,21.62,0,21.94,21.94,0,0,1,7.9,29.73,20.74,20.74,0,0,1-7.86,7.86A22.06,22.06,0,0,1,248,72.32a20.45,20.45,0,0,1-7.85-7.89A21.56,21.56,0,0,1,237.27,53.64Zm21.48-15.29a13.61,13.61,0,0,0-10.36,4.41,15.2,15.2,0,0,0-4.14,10.79,15.34,15.34,0,0,0,2.27,8.34,13.93,13.93,0,0,0,5.54,5.25,15.16,15.16,0,0,0,6.77,1.6,14.62,14.62,0,0,0,7.33-1.87,13.62,13.62,0,0,0,5.27-5.42,15.89,15.89,0,0,0,2-7.9,16.26,16.26,0,0,0-1.79-7.5,14,14,0,0,0-5.21-5.6A14.26,14.26,0,0,0,258.75,38.35Z" style="fill:#fff"/></svg>