<svg xmlns="http://www.w3.org/2000/svg" viewBox="0 0 100 100"><path d="M50.05,67.71H66.94A23.46,23.46,0,0,1,90.07,88.46c.05.46.15.91.22,1.37.6,4.1-1.31,6.33-5.49,6.33H26.47c-3.86,0-7.72,0-11.57,0-3.65,0-5.52-2.09-5.27-5.73,1-14.57,13-23.22,24.22-22.76C39.24,67.9,44.65,67.71,50.05,67.71Z"/><path d="M39,8.2l4.65,9.16.73-.17V9.47c0-4.14,1.45-5.63,5.5-5.64s5.73,1.54,5.75,5.69c0,2.46,0,4.93.09,7.39,0,.11.17.22.52.66l4.59-9.36a21.29,21.29,0,0,1,9.26,9.16A28.39,28.39,0,0,1,72.29,23c.57,2.09.67,4,3.31,5.11s2.14,5.67-.75,6.88a8.2,8.2,0,0,1-3.15.54c-14.43,0-28.85.07-43.27,0A7.81,7.81,0,0,1,24,34.05c-2.18-1.69-1.48-5.52,1.14-6.49,1.57-.58,2-1.45,2.26-3A22.63,22.63,0,0,1,39,8.2Z"/><path d="M27.47,41.51h45c.1,10.06-10.57,19.62-22.24,20C39,61.87,28.07,52.36,27.47,41.51Z"/></svg>